# xmcd
#
# Track frame offsets:
#	150
#	16620
#	30027
#	52352
#	68712
#	78845
#	96237
#	113447
#	127357
#	147252
#	158880
#	179580
#
# Disc length: 2547 seconds
#
# Revision: 0
# Processed by: cddbd v1.4PL0 Copyright (c) Steve Scherf et al.
# Submitted via: EasyCDDAExtractor 5.0.4.1
#
DISCID=9909f10c
DTITLE=Front Range - Ramblin' On My Mind
DYEAR=1900
DGENRE=Country
TTITLE0=Under The Influence Of Love
TTITLE1=Ramblin' On My Mind
TTITLE2=Way Back In The Hills
TTITLE3=Fergus County Jail
TTITLE4=He's Everywhere
TTITLE5=The Lantern
TTITLE6=Jenny Dear
TTITLE7=You're Only Lonely
TTITLE8=Willoughby Gap
TTITLE9=Home In San Antone
TTITLE10=With Body And Soul
TTITLE11=Kissing The Blues Goodbye
EXTD=
EXTT0=
EXTT1=
EXTT2=
EXTT3=
EXTT4=
EXTT5=
EXTT6=
EXTT7=
EXTT8=
EXTT9=
EXTT10=
EXTT11=
PLAYORDER=
